<?xml version="1.0" encoding="utf-8"?>
<!-- Generator: Adobe Illustrator 16.0.3, SVG Export Plug-In . SVG Version: 6.00 Build 0)  -->
<!DOCTYPE svg PUBLIC "-//W3C//DTD SVG 1.1//EN" "http://www.w3.org/Graphics/SVG/1.1/DTD/svg11.dtd">
<svg version="1.1" id="Camada_1" xmlns="http://www.w3.org/2000/svg" xmlns:xlink="http://www.w3.org/1999/xlink" x="0px" y="0px"
	 width="1920px" height="1080px" viewBox="0 0 1920 1080" enable-background="new 0 0 1920 1080" xml:space="preserve">
<title>wallet-white</title>
<g>
	<g>
		<path fill="#ffffff" d="M540.813,0v1080h838.373V0H540.813z M1315.023,1015.839H604.975V64.161h710.052v951.678H1315.023z"/>
	</g>
</g>
<g>
	<g>
		<path fill="#ffffff" d="M1140.369,306.703C1127,231.341,1067.444,171.785,992.08,158.414v-36.176h-64.16v36.176
			c-75.364,13.371-134.918,72.927-148.289,148.289h-28.367v64.161h25.498h366.48h25.498v-64.161H1140.369z M845.309,306.705
			c14.037-50.131,60.139-86.999,114.69-86.999s100.651,36.868,114.69,86.999H845.309z"/>
	</g>
</g>
<g>
	<g>
		<rect x="652.732" y="455.159" fill="#ffffff" width="189.64" height="64.16"/>
	</g>
</g>
<g>
	<g>
		<rect x="652.732" y="562.096" fill="#ffffff" width="189.64" height="64.161"/>
	</g>
</g>
<g>
	<g>
		<rect x="652.732" y="669.03" fill="#ffffff" width="189.64" height="64.161"/>
	</g>
</g>
<g>
	<g>
		<rect x="652.732" y="775.965" fill="#ffffff" width="189.64" height="64.161"/>
	</g>
</g>
<g>
	<g>
		<rect x="652.732" y="882.9" fill="#ffffff" width="189.64" height="64.159"/>
	</g>
</g>
<g>
	<g>
		<rect x="906.533" y="455.159" fill="#ffffff" width="360.734" height="64.16"/>
	</g>
</g>
<g>
	<g>
		<rect x="906.533" y="562.096" fill="#ffffff" width="360.734" height="64.161"/>
	</g>
</g>
<g>
	<g>
		<rect x="906.533" y="669.03" fill="#ffffff" width="360.734" height="64.161"/>
	</g>
</g>
<g>
	<g>
		<rect x="906.533" y="775.965" fill="#ffffff" width="360.734" height="64.161"/>
	</g>
</g>
<g>
	<g>
		<rect x="906.533" y="882.9" fill="#ffffff" width="360.734" height="64.159"/>
	</g>
</g>
</svg>
